<mxfile host="app.diagrams.net" modified="2024-06-28T23:34:08.197Z" agent="Mozilla/5.0 (Windows NT 10.0; Win64; x64) AppleWebKit/537.36 (KHTML, like Gecko) Chrome/126.0.0.0 Safari/537.36" etag="HkfJtCMgjwG1p917RH46" version="24.6.4" type="github">
  <diagram name="PÃ¡gina-1" id="Et0pJcJnsgbVRSXwL4CS">
    <mxGraphModel dx="1512" dy="1669" grid="0" gridSize="10" guides="1" tooltips="1" connect="1" arrows="1" fold="1" page="0" pageScale="1" pageWidth="827" pageHeight="1169" math="0" shadow="0">
      <root>
        <mxCell id="0" />
        <mxCell id="1" parent="0" />
        <mxCell id="kxEnTmNsiCrkL9aHYA9m-1" value="" style="rounded=0;whiteSpace=wrap;html=1;" vertex="1" parent="1">
          <mxGeometry x="-537" y="-609" width="120" height="60" as="geometry" />
        </mxCell>
      </root>
    </mxGraphModel>
  </diagram>
</mxfile>
